<?xml version="1.0" encoding="utf-8"?>
<svg xmlns="http://www.w3.org/2000/svg">
<symbol id="icon-arrow" viewBox="0 0 29 28">
  <title>
    Arrow icon
  </title>
  <g fill-rule="nonzero">
    <path d="M.5 14.5h27v-1H.5"/>
    <path d="M15.354 27.354l13.35-13.35-.707-.708-13.35 13.35"/>
    <path d="M15.354.646l13 13-.708.708-13-13"/>
  </g>

</symbol>
<symbol id="icon-behance" viewBox="0 0 23 14">
  <title>
    &#xF1B4;
  </title>
  <path d="M20.237 2.623H14.82V1.31h5.417v1.313zm-2.672 3.202c-.636 0-1.152.186-1.548.557-.396.37-.615.875-.658 1.51h4.325c-.127-1.377-.834-2.067-2.12-2.067zm.17 6.203c.445 0 .876-.113 1.293-.34.417-.226.686-.533.806-.922h2.343c-.707 2.17-2.216 3.255-4.527 3.255-1.513 0-2.716-.465-3.61-1.398-.895-.933-1.342-2.16-1.342-3.68 0-1.47.46-2.69 1.384-3.663.922-.973 2.11-1.46 3.568-1.46.975 0 1.825.242 2.55.722.724.48 1.265 1.114 1.622 1.898.357.785.535 1.66.535 2.63 0 .12-.007.286-.02.498h-6.978c0 .785.203 1.39.61 1.818.405.428.994.642 1.764.642zm-14.155-.53h3.138c1.45 0 2.174-.59 2.174-1.77 0-1.273-.704-1.91-2.11-1.91H3.58v3.68zm0-5.694h2.98c.55 0 .987-.13 1.31-.387.32-.258.48-.66.48-1.203 0-1.018-.67-1.527-2.014-1.527H3.58v3.117zM.643.407H6.94c.616 0 1.164.05 1.644.15.48.098.928.266 1.342.502.413.236.73.577.954 1.023.222.445.334.99.334 1.632 0 1.28-.608 2.21-1.824 2.79.806.225 1.414.632 1.824 1.218.41.587.615 1.308.615 2.163 0 .53-.088 1.013-.26 1.447-.174.435-.408.8-.7 1.098-.294.298-.642.55-1.045.754-.403.205-.83.353-1.283.445-.453.09-.926.137-1.42.137H.64V.407z" fill-rule="evenodd"/>

</symbol>
<symbol id="icon-chinese" viewBox="0 0 39 20">
  <path d="M7.92.48h2.16V3.9h7.1v9.76h-2.1v-1.1h-5v6.68H7.92v-6.68H2.94v1.1H.84V3.9h7.08V.48zM2.94 10.52h4.98V5.94H2.94v4.58zm7.14 0h5V5.94h-5v4.58zm10.06-6.8h7.92c-.5-.92-1.12-1.78-1.84-2.6l2.1-.76c.72.94 1.38 2.06 1.98 3.36h7.56V5.8h-3.02c-.96 3-2.36 5.5-4.2 7.52 2.06 1.64 4.62 3 7.66 4.12l-1.16 1.78c-3.2-1.2-5.86-2.68-7.98-4.44-2.24 1.98-5 3.44-8.26 4.36l-1.12-1.84c3.18-.82 5.82-2.1 7.9-3.86-2.16-2.2-3.66-4.74-4.5-7.64h-3.04V3.72zm5.04 2.08c.82 2.36 2.14 4.42 3.98 6.22 1.56-1.72 2.74-3.8 3.52-6.22h-7.5z" fill-rule="evenodd"/>

</symbol>
<symbol id="icon-close" viewBox="0 0 34 34">
  <g fill-rule="evenodd">
    <path d="M33.263 31.85L2.15.736.738 2.15 31.85 33.264z"/>
    <path d="M31.85.737L.736 31.85l1.414 1.413L33.264 2.15z"/>
  </g>

</symbol>
<symbol id="icon-cross" viewBox="0 0 36 36">
  <title>
    Cross icon
  </title>
  <g fill-rule="nonzero">
    <path d="M.444 2.03L33.86 35.444l1.413-1.415L1.858.615"/>
    <path d="M33.86.615L.443 34.03l1.414 1.415L35.273 2.03"/>
  </g>

</symbol>
<symbol id="icon-email" viewBox="0 0 12 14">
  <title>
    @
  </title>
  <path d="M8.524 12.77v.807c-.765.192-1.444.287-2.037.287-1.772 0-3.19-.57-4.255-1.712C1.168 11.01.636 9.487.636 7.582c0-1.905.57-3.5 1.71-4.782C3.483 1.517 4.898.876 6.59.876c1.463 0 2.65.518 3.56 1.555.913 1.038 1.37 2.39 1.37 4.058 0 1.317-.218 2.343-.65 3.076-.434.734-1.04 1.1-1.82 1.1-.77 0-1.325-.462-1.667-1.387-.707.925-1.424 1.388-2.154 1.388-.58 0-1.04-.24-1.38-.718-.343-.478-.514-1.123-.514-1.934 0-1.208.314-2.192.943-2.953.628-.762 1.442-1.142 2.44-1.142.355 0 .886.04 1.593.123v3.522l.006.635c0 .643.062 1.08.187 1.313.126.232.36.348.708.348 1.002 0 1.504-1.007 1.504-3.02 0-1.646-.36-2.917-1.074-3.812-.716-.896-1.732-1.343-3.05-1.343-1.48 0-2.71.557-3.687 1.67C1.93 4.47 1.44 5.872 1.44 7.564c0 1.68.452 3.02 1.354 4.015.902.995 2.12 1.493 3.65 1.493.61 0 1.304-.1 2.078-.3zM7.3 4.84c-.355-.08-.63-.122-.826-.122-1.39 0-2.085 1.066-2.085 3.2 0 1.225.363 1.838 1.092 1.838.68 0 1.286-.54 1.82-1.62V4.84z" fill-rule="evenodd"/>

</symbol>
<symbol id="icon-english" viewBox="0 0 19 19">
    <!-- Generator: Sketch 47.1 (45422) - http://www.bohemiancoding.com/sketch -->
    <title>icon-english</title>
    <desc>Created with Sketch.</desc>
    <defs/>
    <g id="Page-1" stroke="none" stroke-width="1" fill="none" fill-rule="evenodd">
        <g id="icon-english" fill="#000000">
            <path d="M0,18.7368421 L0,0 L8,0 L8,2.52631579 L2.68421053,2.52631579 L2.68421053,8.02631579 L7.31578947,8.02631579 L7.31578947,10.5526316 L2.68421053,10.5526316 L2.68421053,16.0526316 L8,16.0526316 L8,18.7368421 L0,18.7368421 Z M9.63157895,18.7368421 L9.63157895,0 L12.2105263,0 L16.2631579,11.2894737 L16.3157895,11.2894737 L16.3157895,0 L19,0 L19,18.7368421 L16.4736842,18.7368421 L12.3684211,7.47368421 L12.3157895,7.47368421 L12.3157895,18.7368421 L9.63157895,18.7368421 Z" id="EN"/>
        </g>
    </g>

</symbol>
<symbol id="icon-facebook" viewBox="0 0 10 19">
  <title>
    Facebook icon
  </title>
  <path d="M9.74.842v2.8H8.074c-.608 0-1.018.126-1.23.38-.212.255-.318.636-.318 1.145V7.17h3.106l-.413 3.14H6.527v8.047H3.282V10.31H.58V7.17H3.28V4.86c0-1.315.368-2.334 1.103-3.06C5.12 1.078 6.1.715 7.322.715c1.04 0 1.845.043 2.417.128z" fill-rule="evenodd"/>

</symbol>
<symbol id="icon-go" viewBox="0 0 70 70">
  <title>
    icon-go
  </title>
  <g fill-rule="nonzero">
    <path d="M1 1v68h68V1H1zm69-1v70H0V0h70z"/>
    <path d="M19 34h29v2H19z"/>
    <path d="M35.343 20.93L48.07 33.656l-1.413 1.414L33.93 22.344z"/>
    <path d="M33.93 47.657L46.656 34.93l1.414 1.413L35.344 49.07z"/>
  </g>

</symbol>
<symbol id="icon-google" viewBox="0 0 24 15">
  <title>
    &#xF0D5;
  </title>
  <path d="M14.863 7.742c0 1.393-.292 2.634-.874 3.722-.584 1.088-1.414 1.938-2.492 2.55-1.078.614-2.314.92-3.707.92-.996 0-1.95-.194-2.86-.582-.912-.39-1.696-.91-2.352-1.567-.656-.657-1.178-1.44-1.567-2.35C.624 9.522.43 8.568.43 7.57c0-.996.193-1.95.58-2.86.39-.912.912-1.695 1.568-2.352.656-.656 1.44-1.178 2.35-1.567C5.84.404 6.795.21 7.792.21c1.916 0 3.56.642 4.933 1.927l-2 1.92c-.782-.758-1.76-1.136-2.932-1.136-.822 0-1.584.208-2.284.624-.7.415-1.254.98-1.662 1.692-.41.713-.613 1.492-.613 2.335 0 .845.205 1.624.614 2.337.408.713.962 1.277 1.662 1.692.7.415 1.462.622 2.285.622.557 0 1.068-.077 1.533-.23.466-.155.85-.347 1.15-.578.302-.232.564-.494.79-.79.223-.294.387-.572.49-.833.105-.26.177-.508.217-.742H7.79v-2.53h6.952c.08.42.12.83.12 1.224zm8.708-1.225v2.11h-2.098v2.098h-2.11v-2.1h-2.1V6.518h2.1v-2.1h2.11v2.1h2.1z" fill-rule="evenodd"/>

</symbol>
<symbol id="icon-instagram" viewBox="0 0 17 17">
  <title>
    Instagram icon
  </title>
  <path d="M11.214 8.214c0-.75-.265-1.39-.795-1.92S9.25 5.5 8.5 5.5s-1.39.265-1.92.795-.794 1.17-.794 1.92.265 1.388.795 1.918 1.17.796 1.92.796 1.39-.266 1.92-.797c.53-.53.794-1.17.794-1.92zm1.463 0c0 1.16-.406 2.146-1.22 2.958-.812.813-1.798 1.22-2.957 1.22-1.16 0-2.145-.407-2.958-1.22-.813-.812-1.22-1.798-1.22-2.958 0-1.16.407-2.145 1.22-2.958.813-.813 1.8-1.22 2.958-1.22 1.16 0 2.145.407 2.958 1.22.813.813 1.22 1.8 1.22 2.958zm1.146-4.347c0 .27-.096.5-.287.69-.19.19-.42.286-.69.286-.268 0-.497-.096-.688-.287-.19-.19-.286-.42-.286-.69 0-.267.095-.497.286-.688.19-.19.42-.286.69-.286.268 0 .497.095.688.286.19.19.287.42.287.69zM8.5 1.535l-.81-.006c-.492-.004-.865-.004-1.12 0-.254.003-.595.013-1.023.03-.427.02-.792.054-1.092.107-.3.053-.553.12-.758.196-.353.142-.664.347-.933.615-.27.27-.474.58-.615.933-.08.206-.144.46-.197.76-.053.3-.09.664-.106 1.09-.018.43-.028.77-.032 1.025-.004.254-.004.627 0 1.118l.005.81c0 .05 0 .32-.005.812-.004.492-.004.865 0 1.12.004.253.014.594.032 1.022.017.428.053.792.106 1.092.053.3.118.552.196.757.14.354.345.665.614.933.27.27.58.474.933.615.205.078.458.143.758.196.3.054.665.09 1.092.107.428.018.77.03 1.023.032.255.003.628.003 1.12 0l.81-.006.81.005c.492.003.865.003 1.12 0 .254-.004.595-.015 1.023-.033.427-.017.792-.053 1.092-.106.3-.052.553-.117.758-.195.353-.14.664-.346.933-.615.27-.268.474-.58.615-.933.08-.205.144-.457.197-.758.053-.3.09-.665.106-1.093.018-.428.028-.77.032-1.023.004-.254.004-.627 0-1.12l-.005-.81c0-.05 0-.32.005-.81.004-.492.004-.865 0-1.12-.004-.254-.014-.595-.032-1.023-.017-.426-.053-.79-.106-1.09-.053-.3-.118-.554-.196-.76-.14-.352-.345-.663-.614-.932-.27-.268-.58-.473-.933-.615-.205-.077-.458-.143-.758-.196-.3-.053-.665-.088-1.092-.106-.428-.017-.77-.027-1.023-.03-.255-.004-.628-.004-1.12 0l-.81.005zm8.143 6.68c0 1.618-.018 2.738-.053 3.36-.07 1.47-.51 2.61-1.315 3.414-.806.805-1.944 1.243-3.414 1.314-.62.035-1.74.053-3.36.053-1.62 0-2.74-.018-3.36-.053-1.47-.07-2.61-.51-3.415-1.315C.92 14.183.48 13.045.41 11.574c-.035-.622-.053-1.742-.053-3.36 0-1.62.018-2.74.053-3.362.07-1.47.51-2.608 1.315-3.414C2.53.632 3.67.194 5.14.123 5.76.09 6.88.07 8.5.07c1.62 0 2.74.02 3.36.054 1.47.07 2.61.51 3.415 1.315.806.805 1.244 1.943 1.315 3.413.035.622.053 1.743.053 3.36z" fill-rule="evenodd"/>

</symbol>
<symbol id="icon-linkedin" viewBox="0 0 17 16">
  <title>
    Linkedin icon
  </title>
  <path d="M4.057 5.34V15.85H.56V5.34h3.497zm.223-3.243c.007.516-.17.947-.535 1.293-.364.346-.843.52-1.437.52h-.02c-.58 0-1.047-.174-1.4-.52-.354-.346-.53-.777-.53-1.293 0-.524.18-.956.545-1.3.364-.342.84-.514 1.426-.514s1.056.172 1.41.515c.353.343.533.775.54 1.3zm5.195 4.737c.135-.212.273-.4.414-.56.147-.17.347-.353.598-.55.25-.2.558-.353.922-.463.364-.108.77-.163 1.214-.163 1.21 0 2.18.4 2.916 1.204.735.803 1.103 1.978 1.103 3.526v6.022h-3.488v-5.62c0-.74-.144-1.323-.43-1.743-.286-.42-.733-.63-1.34-.63-.446 0-.82.12-1.12.365-.3.243-.524.546-.673.906-.078.212-.117.498-.117.86v5.862H5.987c.014-2.82.02-5.107.02-6.86 0-1.753-.002-2.8-.01-3.138l-.01-.51h3.488v1.494z" fill-rule="evenodd"/>

</symbol>
<symbol id="icon-mail" viewBox="0 0 12 14">
  <title>
    @
  </title>
  <path d="M8.524 12.77v.807c-.765.192-1.444.287-2.037.287-1.772 0-3.19-.57-4.255-1.712C1.168 11.01.636 9.487.636 7.582c0-1.905.57-3.5 1.71-4.782C3.483 1.517 4.898.876 6.59.876c1.463 0 2.65.518 3.56 1.555.913 1.038 1.37 2.39 1.37 4.058 0 1.317-.218 2.343-.65 3.076-.434.734-1.04 1.1-1.82 1.1-.77 0-1.325-.462-1.667-1.387-.707.925-1.424 1.388-2.154 1.388-.58 0-1.04-.24-1.38-.718-.343-.478-.514-1.123-.514-1.934 0-1.208.314-2.192.943-2.953.628-.762 1.442-1.142 2.44-1.142.355 0 .886.04 1.593.123v3.522l.006.635c0 .643.062 1.08.187 1.313.126.232.36.348.708.348 1.002 0 1.504-1.007 1.504-3.02 0-1.646-.36-2.917-1.074-3.812-.716-.896-1.732-1.343-3.05-1.343-1.48 0-2.71.557-3.687 1.67C1.93 4.47 1.44 5.872 1.44 7.564c0 1.68.452 3.02 1.354 4.015.902.995 2.12 1.493 3.65 1.493.61 0 1.304-.1 2.078-.3zM7.3 4.84c-.355-.08-.63-.122-.826-.122-1.39 0-2.085 1.066-2.085 3.2 0 1.225.363 1.838 1.092 1.838.68 0 1.286-.54 1.82-1.62V4.84z" fill-rule="evenodd"/>

</symbol>
<symbol id="icon-mail" viewBox="0 0 18 12">
  <title>
    Shape Copy 2
  </title>
  <path d="M.574 1.286l7.5 4.03c.252.134.578.198.906.198.328 0 .654-.064.906-.2.252-.134 7.012-3.766 7.5-4.028.49-.263.95-1.286.054-1.286H.52c-.896 0-.434 1.023.054 1.286zm17.04 2.203c-.556.288-7.388 3.848-7.728 4.026-.34.178-.578.2-.906.2-.328 0-.566-.022-.906-.2C7.734 7.338.94 3.776.386 3.488c-.39-.204-.386.035-.386.22V11c0 .42.566 1 1 1h16c.434 0 1-.58 1-1V3.708c0-.184.004-.423-.387-.22z" fill-rule="evenodd"/>

</symbol>
<symbol id="icon-marker" viewBox="-280 389.9 34 63">
<title>marker</title>

<path id="Shape" d="M-263.4,402.7c-9.2,0-16.6,7.4-16.6,16.6c0,3.7,2.4,9.7,7.2,18.4
		c3.4,6.1,6.8,11.3,6.9,11.5l2.5,3.7l2.5-3.7c0.1-0.2,3.5-5.3,6.9-11.5c4.9-8.7,7.2-14.7,7.2-18.4
		C-246.7,410.1-254.2,402.7-263.4,402.7L-263.4,402.7z M-263.4,427.8c-4.8,0-8.6-3.9-8.6-8.6c0-4.8,3.9-8.6,8.6-8.6s8.6,3.9,8.6,8.6
		C-254.8,423.9-258.6,427.8-263.4,427.8L-263.4,427.8z"/>

</symbol>
<symbol id="icon-menu" viewBox="0 0 38 26">
  <title>
    Menu icon
  </title>
  <g fill-rule="nonzero">
    <path d="M38 0H3.8v2H38zM38 24H15.2v2H38zM38 12H0v2h38z"/>
  </g>

</symbol>
<symbol id="icon-pinterest" viewBox="0 0 144 188">
<title>Pinterest</title>
    <path d="M0,67.6768973 C0,59.6009641 1.40205071,51.9925022 4.2061942,44.8512835 C7.01033768,37.7100647 10.8799976,31.4849596 15.8152902,26.1757813 C20.7505827,20.8666029 26.4335616,16.2678766 32.8643973,12.3794643 C39.295233,8.49105199 46.2120166,5.57478651 53.6149554,3.63058036 C61.0178942,1.68637421 68.570274,0.714285714 76.2723214,0.714285714 C88.0871126,0.714285714 99.0791902,3.20058898 109.248884,8.17327009 C119.418578,13.1459512 127.68133,20.3805329 134.037388,29.8772321 C140.393447,39.3739314 143.571429,50.1042929 143.571429,62.0686384 C143.571429,69.2472457 142.861056,76.2761933 141.44029,83.155692 C140.019524,90.0351906 137.776243,96.65287 134.710379,103.008929 C131.644516,109.364987 127.905714,114.954496 123.493862,119.777623 C119.082009,124.60075 113.660746,128.451716 107.229911,131.330636 C100.799075,134.209557 93.7327394,135.648996 86.030692,135.648996 C80.9458451,135.648996 75.8984626,134.452579 70.8883929,132.05971 C65.8783232,129.666841 62.2890733,126.376695 60.1205357,122.189174 C59.3727641,125.105483 58.3258996,129.311635 56.9799107,134.807757 C55.6339218,140.303878 54.7553034,143.85574 54.344029,145.463449 C53.9327546,147.071158 53.1663003,149.725707 52.0446429,153.427176 C50.9229855,157.128646 49.950897,159.783195 49.1283482,161.390904 C48.3057995,162.998613 47.1093829,165.335364 45.5390625,168.401228 C43.9687421,171.467091 42.2488933,174.364663 40.3794643,177.094029 C38.5100353,179.823395 36.1919781,183.057459 33.4252232,186.796317 L31.8549107,187.357143 L30.8454241,186.235491 C29.7237667,174.495477 29.1629464,167.466529 29.1629464,165.148438 C29.1629464,158.268939 29.9667888,150.548313 31.5744978,141.986328 C33.1822067,133.424343 35.66851,122.675288 39.0334821,109.738839 C42.3984543,96.8023907 44.3426313,89.2126228 44.8660714,86.969308 C42.4732023,82.1087927 41.2767857,75.7902175 41.2767857,68.0133929 C41.2767857,61.8068886 43.2209627,55.9743577 47.109375,50.515625 C50.9977873,45.0568923 55.9330058,42.327567 61.9151786,42.327567 C66.4765853,42.327567 70.0284471,43.8417817 72.5708705,46.8702567 C75.113294,49.8987317 76.3844866,53.7310036 76.3844866,58.3671875 C76.3844866,63.30248 74.7394138,70.4435917 71.4492188,79.7907366 C68.1590237,89.1378816 66.5139509,96.1294411 66.5139509,100.765625 C66.5139509,105.476586 68.1964117,109.383634 71.5613839,112.486886 C74.9263561,115.590138 79.0016502,117.141741 83.7873884,117.141741 C87.9001322,117.141741 91.7137101,116.207041 95.2282366,114.337612 C98.7427631,112.468183 101.677723,109.925797 104.033203,106.710379 C106.388684,103.494962 108.482413,99.9430998 110.314453,96.0546875 C112.146494,92.1662752 113.567238,88.0348991 114.57673,83.6604353 C115.586222,79.2859714 116.333982,75.1359013 116.820033,71.2101004 C117.306085,67.2842996 117.549107,63.5641917 117.549107,60.0496652 C117.549107,47.1132166 113.455119,37.0371455 105.26702,29.8211496 C97.0789211,22.6051537 86.4046417,18.9972098 73.2438616,18.9972098 C58.2884297,18.9972098 45.8008314,23.8389583 35.780692,33.5226004 C25.7605526,43.2062426 20.750558,55.4882068 20.750558,70.3688616 C20.750558,73.6590566 21.2179083,76.8370382 22.1526228,79.9029018 C23.0873373,82.9687653 24.0968138,85.3989866 25.1810826,87.1936384 C26.2653514,88.9882902 27.2748279,90.6894451 28.2095424,92.297154 C29.1442569,93.9048629 29.6116071,95.0451975 29.6116071,95.718192 C29.6116071,97.8119524 29.0507869,100.541278 27.9291295,103.90625 C26.8074721,107.271222 25.4241154,108.953683 23.7790179,108.953683 C23.6294635,108.953683 22.9938672,108.841519 21.8722098,108.617188 C18.0585747,107.49553 14.674959,105.401801 11.7212612,102.335938 C8.76756336,99.270074 6.4868942,95.7369062 4.87918527,91.7363281 C3.27147634,87.7357501 2.05636572,83.697844 1.23381696,79.6224888 C0.411268209,75.5471336 0,71.5653096 0,67.6768973 Z"/>

</symbol>
<symbol id="icon-play" viewBox="0 0 105 157">
  <title>
    Play icon
  </title>
  <path d="M95 78.5L6 12v133l89-66.5zm10.024 0L0 156.973V.027L105.024 78.5z" fill-rule="nonzero"/>

</symbol>
<symbol id="icon-search" viewBox="0 0 36 37">
  <title>
    Search icon
  </title>
  <g fill-rule="evenodd">
    <path d="M23.566 23.206L35.86 35.5l-1.23 1.23-12.294-12.295"/>
    <path d="M14.32 2.15c-6.722 0-12.17 5.448-12.17 12.17 0 6.72 5.448 12.17 12.17 12.17 6.72 0 12.17-5.45 12.17-12.17 0-6.722-5.45-12.17-12.17-12.17zm0-1.74c7.68 0 13.91 6.227 13.91 13.91 0 7.68-6.23 13.91-13.91 13.91C6.636 28.23.41 22 .41 14.32.41 6.636 6.637.41 14.32.41z" fill-rule="nonzero"/>
  </g>

</symbol>
<symbol id="icon-themes" viewBox="0 0 30 26">
  <title>
    Combined Shape
  </title>
  <path d="M1 1v10h12V1H1zm0-1h12c.552 0 1 .448 1 1v10c0 .552-.448 1-1 1H1c-.552 0-1-.448-1-1V1c0-.552.448-1 1-1zm16 0h12c.552 0 1 .448 1 1v10c0 .552-.448 1-1 1H17c-.552 0-1-.448-1-1V1c0-.552.448-1 1-1zm0 1v10h12V1H17zm0 13h12c.552 0 1 .448 1 1v10c0 .552-.448 1-1 1H17c-.552 0-1-.448-1-1V15c0-.552.448-1 1-1zm0 1v10h12V15H17zM1 14h12c.552 0 1 .448 1 1v10c0 .552-.448 1-1 1H1c-.552 0-1-.448-1-1V15c0-.552.448-1 1-1zm0 1v10h12V15H1z" fill-rule="nonzero"/>

</symbol>
<symbol id="icon-tumblr" viewBox="0 0 11 19">
  <title>
    &#xF173;
  </title>
  <path d="M10.08 14.805l.85 2.513c-.164.247-.556.48-1.178.7-.622.22-1.248.332-1.877.34-.735.013-1.408-.08-2.02-.277-.61-.196-1.115-.458-1.51-.783-.397-.325-.732-.7-1.008-1.124-.276-.424-.472-.848-.588-1.272-.118-.423-.176-.84-.176-1.25V7.882H.792v-2.28c.51-.184.965-.43 1.368-.737.403-.307.725-.625.965-.954.24-.328.445-.688.615-1.08.17-.393.29-.743.36-1.05.07-.308.124-.62.16-.938.007-.036.022-.066.047-.09.025-.025.05-.038.08-.038h2.587V5.21h3.53v2.672h-3.54v5.492c0 .212.022.41.068.594.046.183.126.37.24.556.112.188.287.334.523.44.237.106.525.156.865.15.55-.015 1.025-.118 1.42-.31z" fill-rule="evenodd"/>

</symbol>
<symbol id="icon-twitter" viewBox="0 0 18 14">
  <title>
    Twitter icon
  </title>
  <path d="M17.355 2.04c-.474.693-1.046 1.283-1.718 1.77.007.1.01.248.01.446 0 .92-.133 1.836-.402 2.752-.27.915-.677 1.793-1.225 2.634-.547.84-1.2 1.585-1.956 2.232-.756.647-1.668 1.163-2.735 1.548-1.07.385-2.21.578-3.426.578-1.916 0-3.67-.512-5.26-1.537.248.028.524.042.828.042 1.59 0 3.008-.488 4.252-1.463-.742-.014-1.407-.242-1.994-.684-.586-.442-.99-1.006-1.208-1.69.233.034.45.052.647.052.302 0 .603-.04.9-.117-.792-.162-1.448-.556-1.967-1.182-.52-.625-.78-1.35-.78-2.178V5.2c.48.268.997.413 1.55.434-.468-.31-.84-.717-1.115-1.22-.275-.5-.413-1.045-.413-1.632 0-.622.155-1.198.466-1.728.857 1.053 1.897 1.896 3.124 2.53 1.226.63 2.54.983 3.94 1.054-.058-.27-.086-.53-.086-.785 0-.947.334-1.755 1.002-2.422.668-.667 1.475-1 2.423-1 .99 0 1.823.36 2.502 1.08.77-.148 1.495-.424 2.173-.827-.26.813-.763 1.442-1.505 1.887.657-.07 1.315-.247 1.972-.53z" fill-rule="evenodd"/>

</symbol>
<symbol id="icon-wechat" viewBox="0 0 20 16">
    <title>wechat</title>
    <path fill-rule="evenodd" d="M6.03571429,4.40178571 C6.03571429,4.15773687 5.96131027,3.96131027 5.8125,3.8125 C5.66368973,3.66368973 5.46726313,3.58928571 5.22321429,3.58928571 C4.96726062,3.58928571 4.74107241,3.66517781 4.54464286,3.81696429 C4.3482133,3.96875076 4.25,4.16368929 4.25,4.40178571 C4.25,4.63392973 4.3482133,4.8258921 4.54464286,4.97767857 C4.74107241,5.12946504 4.96726062,5.20535714 5.22321429,5.20535714 C5.46726313,5.20535714 5.66368973,5.13244121 5.8125,4.98660714 C5.96131027,4.84077308 6.03571429,4.64583455 6.03571429,4.40178571 Z M12.6696429,8.92857143 C12.6696429,8.76190393 12.5937508,8.61309589 12.4419643,8.48214286 C12.2901778,8.35118982 12.0952393,8.28571429 11.8571429,8.28571429 C11.6964278,8.28571429 11.5491078,8.3526779 11.4151786,8.48660714 C11.2812493,8.62053638 11.2142857,8.76785634 11.2142857,8.92857143 C11.2142857,9.09523893 11.2812493,9.24553504 11.4151786,9.37946429 C11.5491078,9.51339353 11.6964278,9.58035714 11.8571429,9.58035714 C12.0952393,9.58035714 12.2901778,9.51488161 12.4419643,9.38392857 C12.5937508,9.25297554 12.6696429,9.10119134 12.6696429,8.92857143 Z M10.5625,4.40178571 C10.5625,4.15773687 10.4895841,3.96131027 10.34375,3.8125 C10.1979159,3.66368973 10.0029774,3.58928571 9.75892857,3.58928571 C9.50297491,3.58928571 9.2767867,3.66517781 9.08035714,3.81696429 C8.88392759,3.96875076 8.78571429,4.16368929 8.78571429,4.40178571 C8.78571429,4.63392973 8.88392759,4.8258921 9.08035714,4.97767857 C9.2767867,5.12946504 9.50297491,5.20535714 9.75892857,5.20535714 C10.0029774,5.20535714 10.1979159,5.13244121 10.34375,4.98660714 C10.4895841,4.84077308 10.5625,4.64583455 10.5625,4.40178571 Z M16.2321429,8.92857143 C16.2321429,8.76190393 16.1547627,8.61309589 16,8.48214286 C15.8452373,8.35118982 15.6517869,8.28571429 15.4196429,8.28571429 C15.2589278,8.28571429 15.1116078,8.3526779 14.9776786,8.48660714 C14.8437493,8.62053638 14.7767857,8.76785634 14.7767857,8.92857143 C14.7767857,9.09523893 14.8437493,9.24553504 14.9776786,9.37946429 C15.1116078,9.51339353 15.2589278,9.58035714 15.4196429,9.58035714 C15.6517869,9.58035714 15.8452373,9.51488161 16,9.38392857 C16.1547627,9.25297554 16.2321429,9.10119134 16.2321429,8.92857143 Z M13.8571429,5.38392857 C13.6726181,5.36011893 13.4642869,5.34821429 13.2321429,5.34821429 C12.2261854,5.34821429 11.3005995,5.57737866 10.4553571,6.03571429 C9.61011482,6.49404991 8.9449429,7.11457942 8.45982143,7.89732143 C7.97469996,8.68006344 7.73214286,9.53570964 7.73214286,10.4642857 C7.73214286,10.9285737 7.80059455,11.3809502 7.9375,11.8214286 C7.72916563,11.8392858 7.5267867,11.8482143 7.33035714,11.8482143 C7.17559446,11.8482143 7.02678643,11.84375 6.88392857,11.8348214 C6.74107071,11.8258928 6.57738188,11.8065478 6.39285714,11.7767857 C6.20833241,11.7470237 6.07589326,11.7261905 5.99553571,11.7142857 C5.91517817,11.7023809 5.75297741,11.6711312 5.50892857,11.6205357 C5.26487973,11.5699402 5.1160717,11.5386905 5.0625,11.5267857 L2.80357143,12.6607143 L3.44642857,10.7142857 C1.72022946,9.50594634 0.857142857,8.04762759 0.857142857,6.33928571 C0.857142857,5.3333283 1.14731853,4.40774232 1.72767857,3.5625 C2.30803862,2.71725768 3.09374504,2.05208576 4.08482143,1.56696429 C5.07589781,1.08184281 6.15773223,0.839285714 7.33035714,0.839285714 C8.37798143,0.839285714 9.36755487,1.03571232 10.2991071,1.42857143 C11.2306594,1.82143054 12.0104135,2.36457987 12.6383929,3.05803571 C13.2663722,3.75149156 13.6726181,4.52678143 13.8571429,5.38392857 Z M19.1428571,10.3928571 C19.1428571,11.0892892 18.9389901,11.7544611 18.53125,12.3883929 C18.1235099,13.0223246 17.5714321,13.5982117 16.875,14.1160714 L17.3660714,15.7321429 L15.5892857,14.7589286 C14.6964241,14.9791678 14.0476211,15.0892857 13.6428571,15.0892857 C12.6368997,15.0892857 11.7113138,14.8794664 10.8660714,14.4598214 C10.0208291,14.0401765 9.35565719,13.4702417 8.87053571,12.75 C8.38541424,12.0297583 8.14285714,11.2440519 8.14285714,10.3928571 C8.14285714,9.54166241 8.38541424,8.75595598 8.87053571,8.03571429 C9.35565719,7.31547259 10.0208291,6.74553781 10.8660714,6.32589286 C11.7113138,5.9062479 12.6368997,5.69642857 13.6428571,5.69642857 C14.6011953,5.69642857 15.502972,5.9062479 16.3482143,6.32589286 C17.1934566,6.74553781 17.8705332,7.31696067 18.3794643,8.04017857 C18.8883954,8.76339647 19.1428571,9.54761482 19.1428571,10.3928571 Z"/>

</symbol>
<symbol id="icon-weibo" viewBox="0 0 19 16">
  <title>
    &#xF18A;
  </title>
  <path d="M7.157 12.328c.148-.24.187-.484.116-.73-.07-.25-.23-.426-.477-.532-.24-.1-.498-.102-.774-.01-.275.092-.487.254-.636.488-.155.24-.2.482-.138.726.064.244.216.422.456.535.24.113.504.122.79.027.286-.096.507-.264.663-.504zm.996-1.283c.057-.092.07-.185.038-.28-.03-.096-.093-.162-.185-.197-.1-.035-.2-.033-.302.005-.103.04-.18.105-.228.197-.12.22-.074.378.138.477.1.035.2.033.307-.006.106-.038.184-.103.233-.195zm1.845 1.135c-.318.72-.876 1.25-1.675 1.59-.8.34-1.59.382-2.375.127-.756-.24-1.278-.687-1.564-1.34-.286-.655-.263-1.317.07-1.99.33-.656.867-1.148 1.605-1.473.738-.325 1.482-.392 2.23-.2.786.204 1.346.626 1.682 1.266.336.64.344 1.313.026 2.02zm3.308-1.697c-.063-.678-.378-1.28-.943-1.802-.566-.522-1.303-.907-2.21-1.155-.91-.247-1.88-.322-2.91-.223-1.578.163-2.884.663-3.92 1.5-1.035.838-1.503 1.773-1.404 2.805.063.68.377 1.28.943 1.803.565.523 1.302.908 2.21 1.155.91.248 1.88.322 2.91.223 1.577-.163 2.883-.663 3.92-1.5 1.034-.838 1.502-1.773 1.403-2.805zm3.266.043c0 .48-.13.973-.392 1.48-.262.504-.647.988-1.156 1.45-.51.464-1.104.88-1.787 1.247-.682.368-1.48.66-2.396.88-.914.22-1.87.33-2.867.33-.996 0-1.968-.12-2.916-.356-.947-.237-1.797-.566-2.55-.986-.752-.42-1.358-.954-1.818-1.6-.46-.647-.69-1.352-.69-2.116 0-.813.246-1.678.737-2.597.49-.92 1.19-1.83 2.094-2.736 1.195-1.193 2.402-2.027 3.622-2.5 1.22-.475 2.09-.45 2.613.073.46.453.53 1.19.212 2.216-.028.098-.03.17-.01.21.02.044.056.068.106.075.05.007.1.006.154-.005.053-.01.1-.023.143-.037l.063-.02c.983-.418 1.852-.627 2.61-.627.755 0 1.296.216 1.62.647.32.445.32 1.074 0 1.887-.013.092-.03.163-.047.212-.018.05-.002.094.048.133.05.04.092.065.127.08.036.014.096.035.18.063.404.127.768.293 1.093.498.325.205.608.493.848.864.242.372.362.783.362 1.236zM14.717 3.22c.417.128.774.357 1.07.69.297.332.49.715.578 1.15.09.435.066.85-.07 1.246-.055.162-.16.283-.31.36-.153.078-.31.092-.473.043-.163-.058-.283-.162-.36-.314-.08-.152-.093-.31-.043-.472.14-.445.055-.838-.256-1.177-.31-.34-.69-.463-1.134-.37-.17.034-.33.006-.477-.086-.15-.09-.237-.22-.265-.39-.036-.17-.007-.328.085-.473.09-.145.222-.235.392-.27.424-.092.844-.07 1.262.063zm2.99-1.04c.614.68 1.012 1.466 1.192 2.36.18.895.132 1.748-.144 2.56-.063.192-.184.333-.36.425-.177.092-.36.106-.552.043-.19-.064-.332-.184-.424-.36-.092-.178-.11-.36-.053-.552.198-.58.233-1.188.106-1.824-.127-.636-.41-1.195-.848-1.675-.438-.488-.96-.825-1.57-1.013-.607-.187-1.22-.217-1.833-.09-.198.043-.382.01-.552-.1-.17-.11-.275-.264-.318-.462-.042-.198-.01-.38.1-.546.11-.166.264-.27.462-.313.87-.183 1.732-.143 2.587.122.856.265 1.592.74 2.206 1.426z" fill-rule="evenodd"/>

</symbol>
<symbol id="icon-youtube" viewBox="0 0 16 20">
  <title>
    &#xF167;
  </title>
  <path d="M10.152 13.904v2.237c0 .475-.137.712-.413.712-.164 0-.323-.078-.478-.234v-3.19c.155-.157.314-.234.477-.234.275 0 .412.236.412.71zm3.584.01v.488h-.954v-.487c0-.48.16-.72.477-.72.317 0 .476.24.476.72zm-10.242-2.31h1.134v-.997H1.32v.996h1.114v6.033h1.06v-6.033zm3.053 6.032h.944v-5.238h-.943v4.008c-.212.297-.413.446-.604.446-.127 0-.2-.075-.223-.223-.007-.022-.01-.146-.01-.372v-3.86h-.944v4.146c0 .346.028.604.085.774.086.262.29.392.616.392.34 0 .7-.215 1.08-.646v.572zm4.55-1.57V13.98c0-.516-.033-.866-.096-1.05-.12-.395-.37-.593-.752-.593-.354 0-.682.19-.986.572v-2.3h-.944v7.03h.944v-.51c.318.39.646.583.986.583.38 0 .632-.194.753-.583.064-.19.096-.544.096-1.06zm3.583-.105v-.137h-.965c0 .36-.007.576-.02.647-.05.254-.192.382-.425.382-.326 0-.488-.244-.488-.732v-.922h1.898v-1.093c0-.558-.096-.968-.287-1.23-.275-.36-.65-.54-1.123-.54-.48 0-.86.18-1.135.54-.198.262-.297.672-.297 1.23v1.835c0 .558.103.968.308 1.23.275.36.657.54 1.145.54.51 0 .89-.187 1.146-.562.127-.19.2-.38.222-.572.015-.064.022-.27.022-.615zM8.233 6.28V4.055c0-.488-.152-.73-.456-.73-.304 0-.456.242-.456.73V6.28c0 .495.153.743.457.743.304 0 .456-.248.456-.742zm7.624 7.963c0 1.654-.092 2.89-.276 3.71-.098.418-.303.768-.614 1.05-.31.284-.672.446-1.082.49-1.3.147-3.262.22-5.884.22-2.622 0-4.584-.073-5.884-.22-.41-.044-.773-.206-1.087-.49-.316-.282-.52-.632-.61-1.05-.185-.79-.277-2.027-.277-3.71 0-1.654.092-2.89.276-3.71.098-.418.303-.768.614-1.05.31-.283.675-.45 1.092-.5 1.294-.14 3.252-.21 5.874-.21s4.584.07 5.884.21c.41.05.773.217 1.087.5.316.282.52.632.61 1.05.185.79.277 2.028.277 3.71zM5.275.713h1.082L5.074 4.946v2.873h-1.06V4.945c-.1-.523-.315-1.273-.647-2.248-.262-.728-.492-1.39-.69-1.983H3.8l.754 2.79.72-2.79zm3.923 3.532V6.1c0 .573-.1.99-.297 1.252-.267.36-.642.54-1.123.54-.473 0-.844-.18-1.113-.54-.198-.27-.297-.686-.297-1.252V4.245c0-.566.1-.98.297-1.24.27-.36.64-.54 1.113-.54.48 0 .856.18 1.124.54.2.26.298.674.298 1.24zm3.552-1.718v5.29h-.965v-.582c-.374.438-.738.657-1.092.657-.325 0-.534-.13-.625-.392-.057-.17-.085-.435-.085-.795V2.527h.965V6.42c0 .232.003.355.01.37.02.155.096.233.223.233.192 0 .393-.152.605-.456v-4.04h.965z" fill-rule="evenodd"/>

</symbol>
<symbol id="logo-boerdam" viewBox="0 0 24 19">
  <g fill="none" fill-rule="evenodd">
    <path d="M10.56 77.228c-.242 0-.48-.092-.664-.275L.28 67.33c-.37-.364-.37-.954 0-1.33.365-.367.96-.367 1.328 0l9.618 9.623c.366.367.366.96 0 1.33-.184.183-.423.275-.665.275M20.435 78.007c-.24 0-.48-.09-.664-.275L.278 58.244c-.367-.366-.367-.96 0-1.328.368-.367.962-.367 1.33 0l19.494 19.486c.368.367.368.965 0 1.33-.182.184-.42.275-.665.275M29.708 78.19c-.243 0-.48-.1-.665-.274L.277 49.146c-.367-.37-.367-.965 0-1.332.368-.367.962-.367 1.33 0L30.375 76.58c.367.365.367.968 0 1.336-.184.175-.423.275-.666.275M38.007 77.388c-.243 0-.48-.09-.665-.268L24.815 64.588c-.37-.36-.37-.963 0-1.33.367-.366.96-.366 1.33 0l12.528 12.525c.367.368.367.964 0 1.337-.185.177-.423.268-.666.268M16.057 55.44c-.242 0-.48-.092-.664-.274L.277 40.05c-.367-.365-.367-.965 0-1.33.368-.365.962-.365 1.33 0l15.115 15.116c.37.367.37.962 0 1.33-.183.182-.423.275-.665.275M44.4 74.69c-.24 0-.48-.093-.664-.274L33.053 63.74c-.364-.368-.364-.972 0-1.33.372-.368.963-.368 1.335 0l10.678 10.67c.367.373.367.97 0 1.336-.183.18-.422.274-.665.274M16.057 46.347c-.242 0-.48-.092-.664-.274L.277 30.963c-.367-.373-.367-.97 0-1.335.368-.367.962-.367 1.33 0L16.723 44.74c.37.368.37.963 0 1.333-.183.182-.423.274-.665.274M49.34 70.55c-.24 0-.48-.102-.665-.276l-10.47-10.478c-.368-.366-.368-.96 0-1.33.368-.367.964-.367 1.33 0l10.472 10.47c.367.366.367.97 0 1.338-.186.174-.424.276-.668.276M16.057 37.256c-.242 0-.48-.097-.664-.276L.277 21.868c-.367-.37-.367-.967 0-1.334.368-.368.962-.368 1.33 0l15.115 15.11c.37.368.37.968 0 1.336-.183.18-.423.276-.665.276M53.008 65.1c-.243 0-.48-.092-.665-.267L40.87 53.353c-.368-.366-.368-.96 0-1.33.37-.366.964-.366 1.335 0l11.468 11.473c.367.366.367.962 0 1.337-.183.175-.422.266-.665.266M20.562 32.658c-.242 0-.48-.097-.667-.275L.28 12.763c-.37-.368-.37-.963 0-1.335.365-.363.96-.363 1.328 0l19.62 19.622c.366.366.366.965 0 1.333-.184.178-.423.275-.666.275M55.445 58.45c-.243 0-.483-.09-.666-.274L41.226 44.628c-.37-.367-.37-.963 0-1.33.366-.37.962-.37 1.33 0l13.553 13.55c.368.366.368.96 0 1.328-.185.184-.424.275-.665.275M29.205 32.21c-.24 0-.48-.095-.665-.274L.277 3.676c-.37-.366-.37-.966 0-1.334.37-.362.96-.362 1.333 0l28.262 28.26c.367.367.367.966 0 1.334-.186.18-.425.275-.667.275M82.83 76.747c-.242 0-.48-.092-.664-.275L67.453 61.767c-.366-.365-.366-.963 0-1.327.37-.376.964-.376 1.33 0l14.712 14.702c.368.367.368.962 0 1.33-.183.183-.422.275-.664.275M16.057 9.976c-.242 0-.48-.095-.664-.274l-7.717-7.72c-.363-.366-.363-.962 0-1.328.373-.37.963-.37 1.336 0l7.71 7.714c.37.366.37.966 0 1.334-.183.18-.423.274-.665.274M56.558 50.47c-.243 0-.48-.088-.665-.27L24.18 18.49c-.363-.367-.363-.967 0-1.33.374-.367.964-.367 1.337 0l31.707 31.71c.368.366.368.96 0 1.33-.185.182-.424.27-.666.27M94.19 79c-.242 0-.48-.098-.666-.274l-28.62-28.612c-.368-.367-.368-.964 0-1.33.367-.368.96-.368 1.33 0l28.62 28.604c.368.368.368.97 0 1.338-.184.176-.423.274-.665.274" fill="#2CA2CF" mask="url(#mask-2)"/>
    <path d="M56.03 40.84c-.242 0-.48-.092-.664-.272l-22.01-22.01c-.368-.37-.368-.966 0-1.332.367-.368.958-.368 1.33 0l22.01 22.004c.366.37.366.966 0 1.338-.184.18-.423.27-.666.27M102.463 78.19c-.243 0-.48-.1-.665-.274L65.36 41.476c-.37-.37-.37-.966 0-1.336.37-.363.96-.363 1.333 0l36.434 36.44c.367.365.367.968 0 1.336-.183.175-.42.275-.664.275M109.14 75.768c-.243 0-.482-.092-.664-.275l-11.607-11.6c-.368-.367-.368-.97 0-1.338.368-.36.962-.36 1.33 0l11.605 11.607c.367.368.367.965 0 1.33-.184.184-.422.276-.664.276M80.537 47.164c-.243 0-.482-.09-.666-.276L67.4 34.418c-.37-.364-.37-.964 0-1.332.37-.365.96-.365 1.333 0L81.2 45.558c.368.368.368.965 0 1.33-.182.185-.42.276-.663.276M114.54 72.085c-.244 0-.482-.092-.666-.275l-10.697-10.7c-.368-.374-.368-.97 0-1.336.372-.367.963-.367 1.334 0l10.695 10.706c.368.366.368.963 0 1.33-.185.183-.424.275-.666.275M82.373 39.91c-.243 0-.482-.096-.665-.275l-11.01-11.01c-.368-.365-.368-.962 0-1.33.367-.368.963-.368 1.33 0l11.01 11.007c.368.366.368.966 0 1.333-.184.18-.423.275-.665.275M118.807 67.246c-.243 0-.48-.09-.665-.273l-11.058-11.058c-.37-.375-.37-.97 0-1.338.372-.366.963-.366 1.334 0l11.055 11.056c.366.376.366.972 0 1.34-.184.182-.423.273-.666.273M86.58 35.02c-.244 0-.482-.096-.667-.274l-10.79-10.8c-.37-.375-.37-.966 0-1.337.366-.364.96-.364 1.33 0l10.79 10.8c.367.373.367.968 0 1.336-.184.178-.423.274-.664.274M121.93 61.278c-.242 0-.48-.09-.664-.275l-12.62-12.624c-.366-.367-.366-.964 0-1.33.37-.368.964-.368 1.33 0l12.62 12.616c.368.367.368.97 0 1.337-.183.184-.422.275-.665.275M93.25 32.588c-.245 0-.482-.09-.666-.27l-11.88-11.87c-.366-.373-.366-.968 0-1.336.37-.367.963-.367 1.33 0l11.88 11.87c.368.37.368.965 0 1.335-.184.18-.423.27-.665.27M123.81 54.058c-.244 0-.482-.093-.667-.275L87.565 18.217c-.37-.37-.37-.965 0-1.336.373-.362.963-.362 1.333 0l35.576 35.573c.366.366.366.962 0 1.33-.184.182-.422.275-.665.275M157.01 78.16c-.242 0-.48-.09-.664-.276L133.06 54.6c-.366-.368-.366-.963 0-1.33.37-.366.965-.366 1.33 0l23.286 23.277c.37.376.37.972 0 1.337-.183.185-.422.275-.665.275M124.116 45.268c-.242 0-.48-.09-.665-.273L96.087 17.63c-.367-.37-.367-.967 0-1.333.373-.368.962-.368 1.33 0l27.365 27.36c.37.366.37.97 0 1.338-.18.183-.42.273-.664.273M166.482 78.542c-.243 0-.482-.1-.666-.276l-33.144-33.14c-.37-.376-.37-.972 0-1.34.367-.366.962-.366 1.33 0l33.144 33.143c.367.367.367.97 0 1.336-.183.176-.422.276-.664.276M120.88 32.934c-.245 0-.483-.097-.667-.276l-12.036-12.033c-.367-.367-.367-.966 0-1.332.37-.362.964-.362 1.332 0l12.033 12.03c.37.368.37.968 0 1.335-.184.18-.422.276-.664.276M151.608 54.577c-.242 0-.48-.09-.665-.276l-16.84-16.83c-.364-.37-.364-.965 0-1.332.373-.366.963-.366 1.335 0l16.835 16.834c.37.368.37.963 0 1.33-.183.184-.422.275-.665.275M174.31 77.28c-.245 0-.483-.098-.667-.274L160.575 63.94c-.368-.368-.368-.964 0-1.332.372-.366.962-.366 1.335 0l13.064 13.06c.367.368.367.97 0 1.338-.183.176-.422.275-.665.275M181.423 75.302c-.242 0-.48-.093-.664-.276L169.32 63.588c-.37-.367-.37-.957 0-1.33.372-.368.963-.368 1.334 0l11.434 11.43c.367.376.367.97 0 1.338-.185.183-.424.276-.667.276M160.698 54.577c-.242 0-.48-.09-.664-.276l-23.17-23.17c-.37-.367-.37-.967 0-1.33.372-.368.962-.368 1.333 0l23.168 23.172c.366.368.366.963 0 1.33-.185.184-.424.275-.667.275M183.46 68.234c-.243 0-.48-.093-.665-.275l-5.783-5.78c-.368-.367-.368-.97 0-1.337.37-.358.963-.358 1.334 0l5.78 5.777c.367.375.367.972 0 1.34-.185.18-.423.274-.666.274M151.29 36.06c-.243 0-.482-.094-.666-.273l-9.82-9.813c-.368-.37-.368-.966 0-1.336.37-.363.96-.363 1.333 0l9.817 9.817c.366.366.366.962 0 1.332-.183.18-.422.272-.665.272M169.804 54.577c-.242 0-.482-.09-.664-.276l-11.69-11.686c-.37-.37-.37-.966 0-1.336.37-.364.96-.364 1.333 0l11.686 11.694c.367.368.367.963 0 1.33-.185.184-.423.275-.666.275M201.203 76.883c-.24 0-.48-.092-.665-.274l-2.892-2.89c-.372-.367-.372-.962-.005-1.33.367-.366.965-.366 1.334 0l2.893 2.89c.37.364.37.962 0 1.33-.18.18-.422.273-.664.273M156.372 32.05c-.244 0-.483-.095-.665-.274l-9.81-9.802c-.368-.366-.368-.964 0-1.33.368-.366.962-.366 1.33 0l9.81 9.797c.366.37.366.964 0 1.336-.185.18-.424.274-.665.274M178.893 54.577c-.242 0-.478-.09-.664-.276l-11.69-11.686c-.37-.37-.37-.966 0-1.336.365-.364.96-.364 1.33 0l11.69 11.694c.367.368.367.963 0 1.33-.184.184-.423.275-.667.275M210.297 76.883c-.243 0-.482-.092-.665-.274l-11.988-11.99c-.37-.37-.37-.965 0-1.33.37-.367.96-.367 1.33 0l11.987 11.99c.37.364.37.962 0 1.33-.182.18-.42.273-.663.273M185.862 52.453c-.243 0-.482-.093-.666-.276L171.554 38.54c-.37-.372-.37-.968 0-1.338.367-.364.957-.364 1.33 0l13.643 13.645c.368.367.368.964 0 1.33-.184.183-.423.276-.665.276M165.322 31.917c-.243 0-.482-.093-.664-.274l-12.404-12.405c-.37-.367-.37-.965 0-1.328.37-.368.96-.368 1.33 0l12.403 12.397c.368.37.368.968 0 1.336-.184.18-.422.274-.665.274M213.424 70.907c-.242 0-.48-.092-.665-.268l-15.12-15.117c-.367-.365-.367-.96 0-1.328.372-.366.965-.366 1.335 0l15.116 15.107c.367.368.367.964 0 1.337-.184.175-.423.267-.666.267M186.494 43.98c-.242 0-.48-.093-.664-.276l-25.52-25.52c-.366-.363-.366-.963 0-1.328.37-.365.964-.365 1.33 0l25.52 25.516c.367.365.367.963 0 1.332-.184.183-.424.275-.666.275M213.424 61.82c-.242 0-.48-.1-.665-.274L197.64 46.43c-.367-.367-.367-.97 0-1.336.372-.36.965-.36 1.335 0l15.116 15.114c.367.367.367.97 0 1.338-.184.175-.423.274-.666.274M184.27 32.67c-.243 0-.48-.092-.665-.272l-11.78-11.784c-.37-.368-.37-.967 0-1.332.368-.366.96-.366 1.33 0l11.78 11.778c.37.372.37.968 0 1.338-.183.18-.422.273-.665.273M213.424 52.728c-.242 0-.48-.092-.665-.275l-15.12-15.115c-.367-.365-.367-.963 0-1.328.372-.367.965-.367 1.335 0l15.116 15.112c.367.367.367.963 0 1.33-.184.184-.423.276-.666.276M213.424 43.626c-.242 0-.48-.092-.665-.276l-15.12-15.104c-.367-.368-.367-.963 0-1.33.372-.365.965-.365 1.335 0L214.09 42.02c.367.366.367.965 0 1.33-.184.184-.423.276-.666.276M256.43 77.54c-.244 0-.482-.09-.666-.275L238.087 59.59c-.367-.367-.367-.962 0-1.33.368-.367.963-.367 1.335 0l17.672 17.677c.37.367.37.962 0 1.328-.183.184-.42.276-.665.276M214.157 35.263c-.242 0-.48-.095-.664-.276l-13.495-13.483c-.368-.37-.368-.966 0-1.338.372-.363.962-.363 1.335 0l13.49 13.49c.368.366.368.966 0 1.33-.184.182-.423.277-.666.277M266.164 78.19c-.242 0-.48-.1-.664-.274L236.543 48.96c-.365-.374-.365-.972 0-1.337.37-.367.96-.367 1.333 0L266.83 76.58c.37.365.37.968 0 1.336-.184.175-.42.275-.666.275M222.732 34.752c-.243 0-.48-.09-.665-.276l-14.243-14.24c-.37-.367-.37-.967 0-1.333.368-.364.963-.364 1.33 0l14.243 14.24c.367.367.367.967 0 1.333-.184.185-.422.276-.665.276M275.006 77.93c-.244 0-.483-.092-.666-.274l-13.472-13.473c-.367-.368-.367-.962 0-1.33.367-.368.96-.368 1.33 0l13.47 13.473c.37.366.37.963 0 1.33-.182.182-.42.274-.662.274M252.97 55.898c-.24 0-.48-.098-.664-.274L237.144 40.46c-.368-.366-.368-.966 0-1.333.367-.362.963-.362 1.33 0l15.162 15.158c.37.37.37.973 0 1.34-.183.175-.422.273-.665.273M231.696 34.617c-.243 0-.48-.09-.665-.27l-15.113-15.11c-.368-.366-.368-.962 0-1.327.367-.364.963-.364 1.33 0l15.115 15.1c.367.37.367.966 0 1.337-.184.18-.423.27-.666.27M251.96 45.788c-.244 0-.482-.09-.666-.276l-12.16-12.16c-.37-.365-.37-.964 0-1.332.367-.364.962-.364 1.33 0l12.16 12.164c.368.366.368.963 0 1.328-.184.185-.422.276-.665.276M283.392 77.22c-.24 0-.48-.09-.662-.275l-12.524-12.52c-.365-.365-.365-.96 0-1.328.373-.366.965-.366 1.335 0l12.517 12.518c.368.365.368.964 0 1.33-.18.185-.42.274-.665.274M231.913 25.738c-.244 0-.483-.092-.666-.272l-6.94-6.94c-.366-.368-.366-.97 0-1.336.37-.362.962-.362 1.333 0l6.936 6.943c.37.367.37.963 0 1.333-.183.18-.422.272-.663.272M291.51 76.242c-.242 0-.48-.09-.665-.276l-13.75-13.748c-.364-.366-.364-.962 0-1.33.373-.366.966-.366 1.335 0l13.745 13.75c.37.366.37.96 0 1.328-.185.185-.423.276-.665.276M253.82 38.553c-.243 0-.482-.09-.665-.275l-10.726-10.72c-.368-.37-.368-.967 0-1.34.37-.362.963-.362 1.33 0l10.725 10.728c.367.37.367.965 0 1.332-.184.185-.423.275-.666.275M292.876 68.523c-.243 0-.48-.092-.666-.275L277.1 53.132c-.37-.365-.37-.962 0-1.336.368-.36.96-.36 1.33 0l15.11 15.122c.367.368.367.964 0 1.33-.184.183-.422.275-.664.275M258.29 33.937c-.243 0-.48-.094-.666-.275L247.03 23.064c-.367-.367-.367-.968 0-1.333.368-.367.963-.367 1.33 0l10.594 10.6c.37.367.37.966 0 1.332-.184.18-.42.275-.664.275M292.876 59.422c-.243 0-.48-.1-.666-.276L277.1 44.023c-.37-.365-.37-.963 0-1.33.368-.364.96-.364 1.33 0l15.11 15.116c.367.366.367.97 0 1.336-.184.177-.422.276-.664.276M265.626 32.165c-.243 0-.482-.096-.664-.275L253.03 19.96c-.37-.366-.37-.96 0-1.33.37-.37.96-.37 1.328 0l11.934 11.927c.367.368.367.965 0 1.333-.184.18-.423.275-.666.275M330.3 78.657c-.243 0-.484-.09-.672-.276l-25.33-25.323c-.367-.375-.367-.972 0-1.338.37-.367.96-.367 1.335 0l25.33 25.332c.366.368.366.963 0 1.33-.183.184-.423.275-.664.275M292.876 41.23c-.243 0-.48-.096-.666-.277l-22.354-22.35c-.365-.366-.365-.965 0-1.33.373-.366.962-.366 1.335 0l22.35 22.346c.367.366.367.967 0 1.333-.184.18-.422.276-.664.276M346.724 76.883c-.236 0-.48-.092-.665-.274L333.96 64.52c-.367-.37-.367-.964 0-1.33.37-.37.965-.37 1.335 0l12.094 12.09c.366.364.366.962 0 1.33-.184.18-.422.273-.666.273M292.876 23.037c-.243 0-.48-.092-.666-.275L277.1 7.655c-.37-.367-.37-.965 0-1.33.368-.37.96-.37 1.33 0l15.11 15.104c.367.37.367.966 0 1.332-.184.183-.422.275-.664.275M319.492 49.664c-.298 0-.56-.138-.73-.353L305.76 36.316c-.37-.368-.37-.963 0-1.33.367-.368.96-.368 1.33 0l13.068 13.066c.176.176.28.42.28.666 0 .52-.426.948-.946.948" fill="#2CA2CF"/>
    <g fill="#2CA2CF">
      <path d="M360.48 72.46c-.245 0-.483-.092-.665-.275L344.7 57.075c-.366-.374-.366-.97 0-1.336.366-.368.963-.368 1.33 0l15.114 15.114c.367.368.367.963 0 1.33-.183.184-.42.276-.665.276M292.876 4.857c-.243 0-.48-.096-.666-.275l-2.597-2.6c-.37-.366-.37-.965 0-1.332.367-.363.96-.363 1.33 0l2.597 2.598c.367.366.367.967 0 1.334-.184.18-.422.275-.664.275"/>
    </g>
    <path d="M323.647 35.624c-.245 0-.482-.093-.665-.272l-10.497-10.5c-.37-.368-.37-.964 0-1.33.366-.368.96-.368 1.33 0l10.497 10.492c.365.372.365.968 0 1.338-.185.18-.426.272-.665.272M360.48 54.264c-.245 0-.483-.092-.665-.275L344.7 38.88c-.366-.37-.366-.962 0-1.333.366-.368.963-.368 1.33 0l15.114 15.11c.367.365.367.963 0 1.33-.183.182-.42.274-.665.274M383.1 76.883c-.246 0-.482-.092-.665-.274l-7.118-7.117c-.37-.366-.37-.97 0-1.328.367-.37.963-.37 1.333 0l7.116 7.114c.367.364.367.962 0 1.33-.184.18-.425.273-.665.273M338.494 32.288c-.244 0-.48-.096-.665-.276l-13.233-13.237c-.367-.366-.367-.966 0-1.332.372-.363.963-.363 1.334 0L339.16 30.68c.368.365.368.965 0 1.332-.184.18-.424.276-.664.276M360.48 36.09c-.245 0-.483-.097-.665-.276L342.84 18.84c-.372-.37-.372-.97 0-1.336.367-.363.957-.363 1.328 0l16.976 16.978c.367.366.367.965 0 1.332-.183.18-.42.275-.665.275M391.1 66.705c-.243 0-.48-.092-.665-.276l-15.122-15.117c-.36-.367-.36-.962 0-1.33.374-.365.964-.365 1.337 0L391.767 65.1c.366.367.366.962 0 1.33-.185.183-.425.275-.667.275M391.1 57.603c-.243 0-.48-.092-.665-.275l-15.122-15.113c-.36-.367-.36-.967 0-1.33.374-.367.964-.367 1.337 0l15.117 15.106c.366.375.366.972 0 1.338-.185.183-.425.275-.667.275M360.48 26.975c-.245 0-.483-.09-.665-.27l-6.634-6.63c-.366-.366-.366-.966 0-1.333.376-.363.964-.363 1.338 0l6.626 6.626c.367.37.367.967 0 1.337-.183.18-.42.27-.665.27M426.99 75.31c-.24 0-.476-.092-.665-.275l-15.11-15.108c-.37-.368-.37-.963 0-1.33.368-.367.963-.367 1.33 0l15.115 15.108c.367.366.367.963 0 1.33-.186.183-.426.274-.67.274M391.1 39.417c-.243 0-.48-.094-.665-.274L375.313 24.03c-.36-.37-.36-.966 0-1.338.374-.362.964-.362 1.337 0l15.117 15.116c.366.37.366.968 0 1.335-.185.18-.425.274-.667.274M426.99 57.113c-.24 0-.476-.09-.665-.275l-15.362-15.36c-.367-.37-.367-.968 0-1.335.367-.366.962-.366 1.33 0l15.367 15.365c.367.368.367.964 0 1.33-.186.185-.426.275-.67.275M403.466 33.587c-.243 0-.48-.096-.665-.275L388.75 19.258c-.367-.366-.367-.964 0-1.33.366-.363.963-.363 1.33 0l14.053 14.05c.367.366.367.966 0 1.334-.183.18-.418.275-.664.275M455.856 76.883c-.24 0-.48-.092-.666-.274l-8.087-8.08c-.37-.365-.37-.963 0-1.33.374-.365.96-.365 1.337 0l8.08 8.08c.366.364.366.962 0 1.33-.183.18-.425.273-.664.273M426.99 48.028c-.24 0-.476-.093-.665-.277L397.11 18.537c-.368-.365-.368-.962 0-1.33.37-.364.965-.364 1.33 0l29.22 29.21c.367.374.367.97 0 1.335-.186.185-.426.278-.67.278M462.886 65.72c-.24 0-.483-.093-.665-.277l-15.117-15.107c-.363-.366-.363-.965 0-1.33.374-.367.96-.367 1.33 0l15.117 15.11c.368.364.368.96 0 1.327-.183.184-.423.276-.664.276M431 33.846c-.242 0-.477-.096-.664-.276l-12.09-12.093c-.367-.365-.367-.967 0-1.332.375-.363.963-.363 1.337 0l12.087 12.093c.365.367.365.967 0 1.332-.19.18-.426.276-.67.276M497.492 73.048c-.24 0-.48-.092-.665-.275l-14.795-14.795c-.367-.368-.367-.964 0-1.33.37-.36.963-.36 1.33 0l14.795 14.795c.367.367.367.962 0 1.33-.184.183-.42.275-.665.275M462.84 38.398c-.24 0-.48-.093-.665-.275L442.43 18.37c-.372-.366-.372-.965 0-1.333.368-.363.96-.363 1.332 0l19.743 19.75c.37.372.37.97 0 1.336-.184.182-.424.275-.665.275M462.886 74.828c-.24 0-.483-.092-.665-.267l-15.117-15.115c-.363-.367-.363-.97 0-1.336.374-.362.96-.362 1.33 0l15.117 15.113c.368.367.368.963 0 1.338-.183.176-.423.268-.664.268M426.935 38.875c-.24 0-.482-.092-.665-.272L406.01 18.34c-.366-.37-.366-.966 0-1.338.367-.36.964-.36 1.33 0L427.6 37.27c.368.367.368.967 0 1.333-.184.18-.42.272-.665.272M462.886 56.633c-.24 0-.483-.092-.665-.268l-15.49-15.5c-.37-.37-.37-.966 0-1.337.367-.363.96-.363 1.33 0l15.49 15.5c.368.367.368.963 0 1.337-.183.176-.423.268-.664.268M484.93 78.673c-.242 0-.482-.092-.665-.276l-7.023-7.01c-.367-.373-.367-.96 0-1.335.374-.368.962-.368 1.337 0l7.014 7.015c.37.367.37.956 0 1.33-.183.184-.42.276-.664.276M439.957 33.71c-.24 0-.482-.094-.666-.275L425.59 19.732c-.365-.368-.365-.968 0-1.33.376-.366.965-.366 1.333 0L440.623 32.1c.37.367.37.967 0 1.335-.184.18-.422.274-.665.274M493.112 77.77c-.244 0-.48-.09-.662-.275l-14.735-14.71c-.175-.184-.276-.42-.276-.673 0-.834 1.238-1.19 1.696-.566l14.64 14.62c.368.366.368.964 0 1.33-.18.183-.417.274-.664.274" fill="#2CA2CF"/>
    <g fill="#2CA2CF">
      <path d="M462.886 47.545c-.24 0-.483-.098-.665-.273l-28.652-28.66c-.367-.366-.367-.963 0-1.33.376-.363.963-.363 1.332 0l28.65 28.652c.368.367.368.97 0 1.338-.183.175-.423.273-.664.273M498.157 64.62c-.244 0-.48-.094-.665-.277l-7.436-7.427c-.366-.375-.366-.97 0-1.338.368-.366.964-.366 1.33 0l7.436 7.437c.367.365.367.96 0 1.328-.184.183-.42.276-.665.276"/>
    </g>
    <path d="M292.876 50.327c-.243 0-.48-.1-.666-.274L277.1 34.938c-.37-.37-.37-.966 0-1.336.368-.363.96-.363 1.33 0l15.11 15.114c.367.366.367.97 0 1.337-.184.175-.422.274-.664.274M318.517 75.966c-.243 0-.48-.09-.664-.275l-9.575-9.573c-.367-.368-.367-.965 0-1.33.37-.368.964-.368 1.33 0l9.575 9.576c.366.366.366.963 0 1.328-.182.185-.42.276-.666.276M275.568 33.017c-.242 0-.48-.096-.664-.274L260.58 18.417c-.368-.367-.368-.96 0-1.33.368-.366.96-.366 1.33 0l14.323 14.32c.37.37.37.968 0 1.336-.183.178-.423.274-.665.274M337.952 77.22c-.245 0-.48-.09-.666-.275l-33.02-33.02c-.37-.367-.37-.963 0-1.332.37-.363.96-.363 1.332 0l33.02 33.022c.364.365.364.964 0 1.33-.186.185-.423.274-.666.274M292.876 32.145c-.243 0-.48-.095-.666-.275L277.1 16.754c-.37-.367-.37-.967 0-1.332.368-.363.96-.363 1.33 0l15.11 15.116c.367.365.367.966 0 1.332-.184.18-.422.275-.664.275" fill="#2CA2CF"/>
    <g fill="#2CA2CF">
      <path d="M355.82 76.883c-.246 0-.483-.092-.668-.274l-14.487-14.482c-.366-.368-.366-.964 0-1.33.37-.358.96-.358 1.333 0l14.486 14.48c.367.366.367.964 0 1.33-.182.183-.426.275-.665.275M292.876 13.95c-.243 0-.48-.094-.666-.275L280.52 1.983c-.37-.367-.37-.966 0-1.333.368-.363.96-.363 1.328 0l11.692 11.692c.367.366.367.967 0 1.333-.184.18-.422.276-.664.276"/>
    </g>
    <path d="M320.398 41.472c-.24 0-.48-.09-.664-.27l-11.23-11.234c-.367-.365-.367-.963 0-1.33.37-.367.963-.367 1.336 0l11.227 11.23c.366.367.366.964 0 1.334-.188.18-.424.27-.67.27M360.48 63.358c-.245 0-.483-.093-.665-.275L344.7 47.967c-.366-.365-.366-.964 0-1.33.366-.368.963-.368 1.33 0l15.114 15.116c.367.366.367.962 0 1.33-.183.182-.42.275-.665.275M329.607 32.487c-.244 0-.482-.097-.665-.276l-11.16-11.152c-.366-.368-.366-.966 0-1.334.372-.367.965-.367 1.336 0l11.154 11.153c.367.367.367.966 0 1.334-.184.18-.422.277-.665.277M391.1 75.8c-.243 0-.48-.092-.665-.276l-15.122-15.116c-.36-.366-.36-.97 0-1.338.374-.36.964-.36 1.337 0l15.117 15.124c.366.367.366.964 0 1.33-.185.184-.425.275-.667.275M360.48 45.178c-.245 0-.483-.094-.665-.276l-26.586-26.58c-.368-.37-.368-.968 0-1.333.365-.37.962-.37 1.33 0l26.584 26.582c.367.368.367.963 0 1.33-.183.182-.42.276-.665.276M419.475 76.883c-.24 0-.48-.092-.663-.274l-7.597-7.598c-.367-.366-.367-.963 0-1.33.368-.366.955-.366 1.33 0l7.595 7.597c.373.364.373.962 0 1.33-.182.18-.418.273-.665.273M391.1 48.51c-.243 0-.48-.094-.665-.275L375.313 33.12c-.36-.367-.36-.967 0-1.334.374-.36.964-.36 1.337 0l15.117 15.12c.366.366.366.962 0 1.33-.185.18-.425.273-.667.273M426.99 66.216c-.24 0-.476-.1-.665-.275l-15.11-15.115c-.37-.367-.37-.97 0-1.338.368-.36.963-.36 1.33 0l15.115 15.115c.367.37.367.972 0 1.34-.186.175-.426.274-.67.274M394.517 33.728c-.244 0-.48-.095-.668-.274l-13.164-13.157c-.368-.37-.368-.96 0-1.333.367-.364.96-.364 1.33 0l13.167 13.154c.366.37.366.968 0 1.336-.19.18-.426.274-.666.274" fill="#2CA2CF"/>
  </g>

</symbol>
<symbol id="logo-mvrdv" viewBox="0 0 112 37">
  <title>
    Logo MVRDV
  </title>
  <g fill-rule="nonzero">
    <path d="M16.5 0L13 18.48 10.004 0H0v36.97h5.998V14.9L10.5 36.97h4.005l5-22.583V36.97H26V0M41.657 0l-3.414 19.502L34.828 0H28l6.828 36.97h5.847L48 0M105.66 0l-3.412 19.502L98.825 0H92l6.825 36.97h5.864L112 0M65.392 20.025c2.724-1.374 4.098-4.455 4.098-9.24C69.49 3.933 66.244.342 59.75 0H50v36.97h6.663V21.05h2.567l3.085 15.92H70l-4.608-16.945zm-3.077-8.728c0 2.056-1.032 3.26-3.085 3.603h-2.567V5.65h2.567c2.053 0 3.085 1.19 3.085 3.6v2.047zM78.33 0H72v36.97h8.278c6.16 0 9.398-3.346 9.722-10.018V12.075C90 4.018 86.104 0 78.33 0zm5.836 26.186c0 3.42-1.465 5.136-4.382 5.136H78.33V5.648h.97c3.24 0 4.866 1.706 4.866 5.138v15.4z"/>
  </g>

</symbol></svg>